<?xml version="1.0" standalone="no"?>
<!DOCTYPE svg PUBLIC "-//W3C//DTD SVG 20010904//EN"
 "http://www.w3.org/TR/2001/REC-SVG-20010904/DTD/svg10.dtd">
<svg version="1.0" xmlns="http://www.w3.org/2000/svg"
 width="300.000000pt" height="300.000000pt" viewBox="0 0 300.000000 300.000000"
 preserveAspectRatio="xMidYMid meet">
<metadata>
Created by potrace 1.11, written by Peter Selinger 2001-2013
</metadata>
<g transform="translate(0.000000,300.000000) scale(0.100000,-0.100000)"
fill="#000000" stroke="none">
<path d="M120 1505 l0 -1375 1380 0 1380 0 0 1375 0 1375 -1380 0 -1380 0 0
-1375z m916 1190 c81 -80 111 -133 95 -164 -9 -16 -29 -19 -188 -24 -145 -4
-182 -3 -200 9 -13 8 -23 22 -23 30 0 19 209 223 228 224 8 0 47 -34 88 -75z
m1322 52 c6 -6 12 -28 14 -47 l3 -35 59 -5 c66 -6 90 -26 67 -54 -10 -11 -31
-16 -71 -16 -40 0 -59 -4 -63 -14 -12 -29 17 -44 97 -49 88 -6 119 -24 100
-55 -9 -13 -23 -16 -60 -15 -157 7 -305 5 -343 -5 -51 -12 -81 -2 -81 27 0 32
26 42 117 49 85 7 88 8 88 32 0 24 -2 25 -72 25 -85 0 -104 12 -79 49 18 29
17 28 96 30 55 1 55 1 56 32 1 18 4 39 7 48 8 19 50 21 65 3z m-457 -12 c24
-7 63 -19 86 -25 66 -17 70 -37 26 -119 l-38 -69 34 -47 c56 -78 51 -152 -15
-204 -37 -29 -101 -46 -120 -30 -12 10 -14 -6 -14 -110 0 -122 -8 -161 -35
-161 -38 0 -40 15 -39 352 1 179 4 330 8 336 3 6 -1 15 -10 20 -33 18 8 69 57
71 8 1 35 -6 60 -14z m-1413 -73 c17 -17 18 -34 14 -206 -3 -132 -1 -191 7
-199 22 -22 31 9 38 124 7 132 14 159 43 159 32 0 36 -28 25 -184 -8 -115 -14
-150 -28 -166 -10 -12 -25 -19 -35 -16 -52 14 -108 17 -153 6 -72 -18 -79 -8
-86 121 -8 137 3 255 24 263 36 14 43 -11 43 -154 0 -108 3 -140 15 -150 32
-27 37 -2 34 195 -2 148 0 197 10 209 17 21 27 20 49 -2z m344 -199 c23 -20
23 -46 1 -65 -25 -21 -147 -88 -161 -88 -26 0 -9 35 49 101 65 72 81 80 111
52z m325 -42 c62 -45 82 -81 45 -81 -9 0 -53 15 -97 34 -68 28 -80 37 -80 57
0 15 9 28 24 36 28 13 25 15 108 -46z m1077 -3 c9 -12 16 -28 16 -35 0 -20
-37 -49 -112 -88 -52 -27 -73 -34 -81 -26 -8 8 10 32 68 91 44 44 83 80 87 80
4 0 14 -10 22 -22z m281 -38 c58 -45 81 -80 53 -80 -7 0 -50 14 -96 32 -67 26
-84 37 -89 56 -7 30 21 55 51 46 12 -4 48 -28 81 -54z m-161 -22 c9 -12 16
-35 16 -50 0 -30 12 -36 89 -40 55 -4 77 -30 46 -54 -14 -11 -34 -14 -70 -10
-63 7 -77 -2 -73 -45 3 -39 1 -38 212 -59 129 -13 146 -17 146 -33 0 -20 -54
-67 -77 -67 -13 0 -54 10 -91 23 -59 19 -87 22 -232 22 -148 0 -171 -3 -220
-23 -30 -12 -63 -22 -72 -22 -37 0 -41 59 -6 87 8 7 63 15 123 19 132 8 147
14 143 57 l-3 32 -69 1 c-54 0 -71 4 -82 19 -25 34 -2 52 76 59 70 7 70 7 70
37 0 65 43 92 74 47z m-1363 -17 c42 -5 82 -11 88 -15 16 -10 14 -39 -10 -98
l-21 -53 27 -20 c14 -11 69 -42 122 -70 53 -27 96 -54 97 -60 0 -5 -20 -21
-46 -33 -62 -31 -95 -21 -168 53 -30 30 -61 55 -68 55 -8 0 -41 -25 -75 -56
-74 -68 -101 -80 -133 -59 -39 25 -30 49 34 88 69 42 96 71 89 91 -8 20 -80
41 -100 30 -8 -5 -52 -51 -97 -101 -67 -77 -86 -93 -110 -93 -33 0 -62 24 -54
45 4 8 27 30 53 49 64 47 152 141 196 210 35 55 39 58 68 51 18 -3 66 -10 108
-14z m323 -447 c9 -3 16 -14 16 -24 0 -21 19 -30 65 -30 35 0 51 -20 32 -39
-6 -6 -25 -11 -41 -11 -38 0 -51 -9 -60 -37 -10 -30 -32 -29 -52 2 -17 25 -18
26 -114 19 -98 -7 -116 -2 -105 28 11 28 66 48 131 48 43 0 63 4 59 10 -16 26
31 49 69 34z m364 -20 c3 -24 40 -34 129 -34 58 0 71 -11 53 -45 -20 -38 -58
-48 -109 -30 -64 22 -96 20 -115 -10 -19 -29 -33 -25 -47 11 -8 22 -14 25 -56
22 -39 -2 -48 0 -51 15 -6 31 17 47 69 47 34 0 49 4 49 13 0 40 72 50 78 11z
m-420 -134 c21 -24 34 -30 67 -30 48 0 81 -20 72 -44 -5 -13 -20 -16 -72 -16
-42 0 -64 -4 -60 -10 3 -5 32 -10 64 -10 64 0 98 -17 88 -45 -6 -13 -16 -16
-47 -13 -48 4 -50 -2 -8 -22 54 -26 47 -40 -20 -40 -66 0 -88 15 -77 51 7 20
5 21 -25 15 -18 -3 -44 -6 -57 -6 -21 0 -23 -3 -14 -14 15 -18 6 -38 -27 -59
l-27 -16 36 -1 c33 0 37 3 43 30 4 24 11 30 30 30 18 0 30 -9 41 -30 13 -24
22 -30 49 -30 44 0 66 -9 66 -25 0 -20 -19 -29 -75 -36 l-50 -6 47 -2 c36 -1
51 -6 60 -21 12 -18 24 -20 158 -20 80 0 151 -4 158 -9 8 -5 12 -17 10 -27 -3
-17 -17 -19 -168 -24 -150 -5 -167 -4 -182 12 -21 23 -133 25 -204 3 -96 -29
-144 -12 -110 40 16 24 54 35 122 35 24 0 44 5 44 11 0 6 -24 9 -67 7 l-67 -3
-9 50 c-7 41 -5 51 8 61 15 11 12 13 -17 16 -28 2 -33 7 -33 28 0 29 38 45
128 55 77 9 76 30 -1 22 -61 -5 -92 4 -92 28 0 20 32 35 75 35 42 0 75 15 75
35 0 12 13 22 33 24 5 1 21 -12 35 -29z m310 -10 c10 -26 12 -27 61 -22 81 7
97 -20 65 -105 -20 -51 -13 -102 17 -129 18 -16 37 -19 125 -18 96 1 104 0
104 -18 0 -11 -14 -33 -31 -50 -28 -29 -34 -30 -85 -25 -71 7 -140 41 -166 81
-19 29 -26 32 -74 33 -52 1 -55 0 -81 -38 -39 -54 -93 -66 -110 -23 -4 12 5
26 30 47 39 31 47 54 22 63 -8 4 -15 14 -15 24 0 14 9 20 33 22 28 3 32 6 32
33 0 26 -3 30 -29 30 -61 0 -57 56 4 69 24 4 30 11 30 30 0 44 53 41 68 -4z
m269 -457 c22 -29 -3 -43 -77 -43 -36 0 -69 -3 -72 -6 -4 -3 0 -22 9 -41 13
-33 13 -37 -4 -55 -36 -35 -355 -49 -415 -17 -24 13 -23 51 2 74 11 10 20 22
20 26 0 5 -37 9 -82 11 -68 2 -83 6 -86 20 -2 9 6 24 17 35 18 17 40 18 348
15 287 -3 330 -5 340 -19z m-323 -342 c63 -12 96 -33 96 -62 0 -10 -18 -39
-40 -64 -22 -25 -40 -50 -40 -54 0 -5 14 -25 30 -46 49 -62 51 -105 9 -159
-26 -33 -68 -55 -122 -64 l-42 -7 -5 -127 c-4 -104 -8 -131 -22 -145 -17 -16
-19 -16 -35 0 -16 16 -18 46 -18 341 0 296 -2 326 -18 343 -23 26 -13 52 26
68 25 10 39 10 76 0 25 -8 73 -18 105 -24z m416 24 c6 -8 10 -31 8 -52 l-3
-38 95 -7 c119 -9 142 -24 152 -96 9 -62 -3 -102 -32 -102 -21 0 -30 15 -49
87 -7 24 -19 44 -29 47 -20 5 -193 11 -274 8 -70 -2 -88 -18 -88 -77 0 -61
-37 -94 -68 -63 -23 23 -6 154 24 179 8 7 51 15 97 18 l82 6 3 40 c1 22 5 46
7 53 6 17 60 15 75 -3z m103 -237 c14 -7 15 -13 7 -28 -9 -17 -23 -20 -100
-22 -183 -4 -175 -5 -178 19 -6 42 30 53 147 46 58 -3 114 -10 124 -15z m115
-130 c9 -9 7 -17 -10 -35 -18 -19 -32 -23 -84 -23 -73 0 -73 0 -81 -115 -5
-72 -3 -82 15 -98 30 -27 155 -35 218 -13 26 9 54 16 61 16 20 0 15 -44 -10
-81 -37 -55 -60 -61 -150 -39 -42 11 -99 29 -127 41 -73 31 -83 56 -79 188 4
102 3 106 -18 109 -22 3 -25 -2 -38 -68 -18 -89 -109 -204 -190 -241 -48 -22
-75 -24 -99 -6 -34 25 -11 55 67 91 84 38 140 95 157 157 15 54 5 63 -55 49
-68 -15 -99 17 -58 62 15 16 36 18 243 18 162 0 229 -3 238 -12z"/>
<path d="M887 2629 c-62 -51 -52 -62 52 -57 49 1 93 7 98 11 12 13 -63 77 -90
77 -12 0 -39 -14 -60 -31z"/>
<path d="M1865 2672 c-6 -4 -9 -89 -7 -208 l3 -202 26 22 c74 60 85 78 80 124
-6 52 -17 66 -54 67 -38 0 -41 28 -7 68 41 48 59 97 42 112 -16 15 -71 26 -83
17z"/>
<path d="M908 2283 c-29 -7 -21 -22 28 -45 39 -19 46 -20 54 -8 28 45 -13 71
-82 53z"/>
<path d="M1095 1550 c-13 -6 -15 -9 -5 -9 8 0 22 4 30 9 18 12 2 12 -25 0z"/>
<path d="M1571 1631 c-19 -35 -13 -69 15 -87 33 -23 45 -7 42 56 -3 38 -7 46
-25 48 -14 2 -26 -4 -32 -17z"/>
<path d="M1397 1203 c-20 -14 -37 -30 -37 -35 0 -4 42 -8 94 -8 148 0 182 13
138 53 -14 13 -37 17 -88 17 -59 0 -75 -4 -107 -27z"/>
<path d="M1406 874 c-8 -21 -8 -329 1 -337 8 -8 47 15 86 51 49 46 28 117 -35
117 -51 0 -49 28 6 81 25 24 46 53 46 64 0 35 -92 56 -104 24z"/>
</g>
</svg>
